<?xml version="1.0" encoding="UTF-8" standalone="no"?>
<svg
   xmlns:dc="http://purl.org/dc/elements/1.1/"
   xmlns:cc="http://creativecommons.org/ns#"
   xmlns:rdf="http://www.w3.org/1999/02/22-rdf-syntax-ns#"
   xmlns:svg="http://www.w3.org/2000/svg"
   xmlns="http://www.w3.org/2000/svg"
   xmlns:sodipodi="http://sodipodi.sourceforge.net/DTD/sodipodi-0.dtd"
   xmlns:inkscape="http://www.inkscape.org/namespaces/inkscape"
   inkscape:version="1.0 (4035a4fb49, 2020-05-01)"
   sodipodi:docname="google-fill.svg"
   id="svg6"
   version="1.1"
   height="24"
   width="24"
   viewBox="0 0 24 24">
  <metadata
     id="metadata12">
    <rdf:RDF>
      <cc:Work
         rdf:about="">
        <dc:format>image/svg+xml</dc:format>
        <dc:type
           rdf:resource="http://purl.org/dc/dcmitype/StillImage" />
      </cc:Work>
    </rdf:RDF>
  </metadata>
  <defs
     id="defs10" />
  <sodipodi:namedview
     inkscape:current-layer="svg6"
     inkscape:window-maximized="1"
     inkscape:window-y="-8"
     inkscape:window-x="-8"
     inkscape:cy="12"
     inkscape:cx="12"
     inkscape:zoom="22.833333"
     showgrid="false"
     id="namedview8"
     inkscape:window-height="715"
     inkscape:window-width="1366"
     inkscape:pageshadow="2"
     inkscape:pageopacity="0"
     guidetolerance="10"
     gridtolerance="10"
     objecttolerance="10"
     borderopacity="1"
     bordercolor="#666666"
     pagecolor="#ffffff" />
  <path
     id="path2"
     d="M0 0h24v24H0z"
     fill="none" />
  <path
     style="fill:#ffffff"
     id="path4"
     d="M3.064 7.51A9.996 9.996 0 0 1 12 2c2.695 0 4.959.99 6.69 2.605l-2.867 2.868C14.786 6.482 13.468 5.977 12 5.977c-2.605 0-4.81 1.76-5.595 4.123-.2.6-.314 1.24-.314 1.9 0 .66.114 1.3.314 1.9.786 2.364 2.99 4.123 5.595 4.123 1.345 0 2.49-.355 3.386-.955a4.6 4.6 0 0 0 1.996-3.018H12v-3.868h9.418c.118.654.182 1.336.182 2.045 0 3.046-1.09 5.61-2.982 7.35C16.964 21.105 14.7 22 12 22A9.996 9.996 0 0 1 2 12c0-1.614.386-3.14 1.064-4.49z" />
</svg>
