<?xml version="1.0" encoding="utf-8"?>
<!-- Generator: Adobe Illustrator 19.0.0, SVG Export Plug-In . SVG Version: 6.00 Build 0)  -->
<svg version="1.1" id="Layer_1" xmlns="http://www.w3.org/2000/svg" xmlns:xlink="http://www.w3.org/1999/xlink" x="0px" y="0px"
	 viewBox="0 0 96 96" style="enable-background:new 0 0 96 96;" xml:space="preserve">
<style type="text/css">
	.st0{fill:#333333;}
</style>
<g id="XMLID_2_">
	<path id="XMLID_10_" class="st0" d="M32.3,63.7c0,1.6-0.6,3-1.7,4.2c-1.1,1.1-2.5,1.7-4.2,1.7s-3-0.6-4.2-1.7
		c-1.1-1.1-1.7-2.5-1.7-4.2c0-1.6,0.6-3,1.7-4.2c1.1-1.1,2.5-1.7,4.2-1.7s3,0.6,4.2,1.7C31.7,60.7,32.3,62.1,32.3,63.7z M32.3,48
		c0,1.6-0.6,3-1.7,4.2c-1.1,1.1-2.5,1.7-4.2,1.7s-3-0.6-4.2-1.7c-1.1-1.1-1.7-2.5-1.7-4.2s0.6-3,1.7-4.2s2.5-1.7,4.2-1.7
		s3,0.6,4.2,1.7S32.3,46.4,32.3,48z M75.5,60.8v5.9c0,0.3-0.1,0.5-0.3,0.7c-0.2,0.2-0.4,0.3-0.7,0.3H37.2c-0.3,0-0.5-0.1-0.7-0.3
		c-0.2-0.2-0.3-0.4-0.3-0.7v-5.9c0-0.3,0.1-0.5,0.3-0.7c0.2-0.2,0.4-0.3,0.7-0.3h37.3c0.3,0,0.5,0.1,0.7,0.3
		C75.4,60.3,75.5,60.5,75.5,60.8z M32.3,32.3c0,1.6-0.6,3-1.7,4.2c-1.1,1.1-2.5,1.7-4.2,1.7s-3-0.6-4.2-1.7
		c-1.1-1.1-1.7-2.5-1.7-4.2s0.6-3,1.7-4.2c1.1-1.1,2.5-1.7,4.2-1.7s3,0.6,4.2,1.7C31.7,29.3,32.3,30.6,32.3,32.3z M75.5,45.1v5.9
		c0,0.3-0.1,0.5-0.3,0.7c-0.2,0.2-0.4,0.3-0.7,0.3H37.2c-0.3,0-0.5-0.1-0.7-0.3c-0.2-0.2-0.3-0.4-0.3-0.7v-5.9
		c0-0.3,0.1-0.5,0.3-0.7s0.4-0.3,0.7-0.3h37.3c0.3,0,0.5,0.1,0.7,0.3S75.5,44.8,75.5,45.1z M75.5,29.3v5.9c0,0.3-0.1,0.5-0.3,0.7
		c-0.2,0.2-0.4,0.3-0.7,0.3H37.2c-0.3,0-0.5-0.1-0.7-0.3c-0.2-0.2-0.3-0.4-0.3-0.7v-5.9c0-0.3,0.1-0.5,0.3-0.7
		c0.2-0.2,0.4-0.3,0.7-0.3h37.3c0.3,0,0.5,0.1,0.7,0.3C75.4,28.8,75.5,29.1,75.5,29.3z"/>
</g>
</svg>
