<?xml version="1.0" encoding="utf-8"?>
<!-- Generator: Adobe Illustrator 24.0.1, SVG Export Plug-In . SVG Version: 6.00 Build 0)  -->
<svg version="1.1" id="Layer_1" xmlns="http://www.w3.org/2000/svg" xmlns:xlink="http://www.w3.org/1999/xlink" x="0px" y="0px"
	 viewBox="0 0 24 24" style="enable-background:new 0 0 24 24;" xml:space="preserve">
<path d="M4,4h16c0.6,0,1,0.4,1,1v0c0,0.6-0.4,1-1,1H4C3.4,6,3,5.6,3,5v0C3,4.4,3.4,4,4,4z"/>
<path d="M4,11h16c0.6,0,1,0.4,1,1v0c0,0.6-0.4,1-1,1H4c-0.6,0-1-0.4-1-1v0C3,11.4,3.4,11,4,11z"/>
</svg>
