<svg xmlns:dc="http://purl.org/dc/elements/1.1/" xmlns:cc="http://creativecommons.org/ns#" xmlns:rdf="http://www.w3.org/1999/02/22-rdf-syntax-ns#" xmlns:svg="http://www.w3.org/2000/svg" xmlns="http://www.w3.org/2000/svg" xmlns:sodipodi="http://sodipodi.sourceforge.net/DTD/sodipodi-0.dtd" xmlns:inkscape="http://www.inkscape.org/namespaces/inkscape" viewBox="0 0 26.458333 33.0729175" version="1.1" x="0px" y="0px"><g transform="translate(0,-270.54163)"><path style="color:#000000;font-style:normal;font-variant:normal;font-weight:normal;font-stretch:normal;font-size:medium;line-height:normal;font-family:sans-serif;font-variant-ligatures:normal;font-variant-position:normal;font-variant-caps:normal;font-variant-numeric:normal;font-variant-alternates:normal;font-feature-settings:normal;text-indent:0;text-align:start;text-decoration:none;text-decoration-line:none;text-decoration-style:solid;text-decoration-color:#000000;letter-spacing:normal;word-spacing:normal;text-transform:none;writing-mode:lr-tb;direction:ltr;text-orientation:mixed;dominant-baseline:auto;baseline-shift:baseline;text-anchor:start;white-space:normal;shape-padding:0;clip-rule:nonzero;display:inline;overflow:visible;visibility:visible;opacity:1;isolation:auto;mix-blend-mode:normal;color-interpolation:sRGB;color-interpolation-filters:linearRGB;solid-color:#000000;solid-opacity:1;vector-effect:none;fill:#000000;fill-opacity:1;fill-rule:nonzero;stroke:none;stroke-width:2.64583325;stroke-linecap:round;stroke-linejoin:round;stroke-miterlimit:4;stroke-dasharray:none;stroke-dashoffset:0;stroke-opacity:1;color-rendering:auto;image-rendering:auto;shape-rendering:auto;text-rendering:auto;enable-background:accumulate" d="m 11.521413,275.43989 a 0.24377935,0.24377935 0 0 0 -0.143584,0.0456 c 0,0 -1.195252,0.85664 -2.432788,1.67067 a 0.24377935,0.24377935 0 0 0 -0.05864,0.0386 c -0.345498,0.22662 -0.692763,0.44906 -1.017021,0.64729 -0.876141,0.53561 -1.414261,1.79393 -1.787501,2.91457 -0.08043,0.24165 -0.151366,0.47678 -0.21395,0.69842 a 0.24377935,0.24377935 0 0 0 -0.02757,0.0976 c -0.209349,0.75817 -0.310882,1.32512 -0.310882,1.32512 a 0.24377935,0.24377935 0 0 0 0.03128,0.16911 c 0.573577,0.9493 1.861402,1.64103 3.201381,1.66696 0.08579,1.55928 0.122219,3.63159 -0.115885,5.6237 a 0.24377935,0.24377935 0 0 0 0.09603,0.22385 c 0.395676,0.29625 0.840772,0.55611 1.318374,0.77421 a 0.24377935,0.24377935 0 0 0 0.08,0.0363 c 0.940773,0.41719 2.003195,0.67222 3.064936,0.72174 a 0.24381549,0.24381549 0 0 0 0.02408,9.5e-4 c 0.01569,9.5e-4 0.03139,10e-4 0.04709,0.002 1.658647,0.063 3.321445,-0.38434 4.467477,-1.56043 a 0.24377935,0.24377935 0 0 0 0.06736,-0.19909 c -0.238104,-1.99211 -0.2017,-4.06441 -0.115874,-5.6237 1.340133,-0.0258 2.62822,-0.71756 3.201852,-1.66696 a 0.24377935,0.24377935 0 0 0 0.03128,-0.1691 c 0,0 -0.100814,-0.5627 -0.308604,-1.31675 -1.9e-5,-5e-5 0,-9e-5 0,-1.9e-4 a 0.24377935,0.24377935 0 0 0 -0.03139,-0.1116 c -0.06224,-0.21993 -0.132551,-0.45308 -0.212339,-0.6926 -0.373253,-1.12064 -0.911349,-2.37896 -1.787503,-2.91458 -0.323641,-0.19787 -0.670201,-0.41986 -1.01509,-0.64605 a 0.24377935,0.24377935 0 0 0 0,-1e-4 0.24377935,0.24377935 0 0 0 -0.06137,-0.0404 c -1.237314,-0.81386 -2.432119,-1.67012 -2.432119,-1.67012 a 0.24377935,0.24377935 0 0 0 -0.335449,0.0497 c -0.479066,0.62527 -1.033873,0.8493 -1.57194,0.82012 -0.538054,-0.0291 -1.072425,-0.32709 -1.461098,-0.82229 a 0.24377935,0.24377935 0 0 0 -0.190342,-0.0932 z m 3.447423,0.56292 v 0 c 0.187354,0.13387 1.135653,0.80931 2.186083,1.50223 -0.0159,0.2752 -0.01296,0.87818 0.232992,1.56785 0.328277,0.92061 1.103326,2.00481 2.777863,2.67521 0.158144,0.58001 0.240895,1.00604 0.260123,1.10851 -0.477703,0.72157 -1.580703,1.32718 -2.701195,1.36788 0.01995,-0.28483 0.02519,-0.29083 0.04501,-0.51645 l 0.127016,-1.45748 a 0.24377935,0.24377935 0 0 0 -0.484749,-0.0522 c 0,0 -0.0011,0.009 -0.0011,0.009 l -0.05864,0.67289 c -0.06354,0.0664 -0.176035,0.19219 -0.310882,0.38981 -0.202867,0.29731 -0.458455,0.75512 -0.683372,1.40712 -0.446812,1.29523 -0.771321,3.35568 -0.338597,6.45151 -0.770732,0.34412 -1.647749,0.49752 -2.546943,0.48503 v -14.71516 a 0.24377935,0.24377935 0 0 0 -0.0087,-0.0661 c 0.531098,-0.0582 1.058852,-0.33336 1.504336,-0.82991 z m -3.479982,3.7e-4 c 0.413252,0.44807 0.939099,0.75199 1.506431,0.82476 a 0.24377935,0.24377935 0 0 0 -0.0098,0.0711 v 14.69291 c -0.871225,-0.069 -1.738596,-0.28755 -2.517807,-0.61863 0.405765,-3.02378 0.08131,-5.03876 -0.362307,-6.30964 -0.226507,-0.64882 -0.483828,-1.10364 -0.688033,-1.39854 -0.134996,-0.19494 -0.247555,-0.31892 -0.311843,-0.38486 l -0.05853,-0.67204 h -5.29e-4 c -1.3e-5,-3e-5 -0.0011,-0.009 -0.0011,-0.009 a 0.24377935,0.24377935 0 0 0 -0.484365,0.0522 l 0.171683,1.97394 c -1.120354,-0.0409 -2.223286,-0.64639 -2.700922,-1.36788 0.01918,-0.10249 0.101806,-0.52842 0.259839,-1.10832 1.674876,-0.67039 2.450129,-1.7547 2.778432,-2.6754 0.246007,-0.68988 0.248883,-1.29306 0.233,-1.56813 1.04997,-0.69256 1.997845,-1.36758 2.185506,-1.50166 z m -2.667786,1.81549 c -0.0098,0.27162 -0.0557,0.65788 -0.20995,1.09053 -0.265726,0.74518 -0.839583,1.61132 -2.139717,2.2296 0.02387,-0.0756 0.04676,-0.14999 0.0727,-0.22796 0.360542,-1.08254 0.936156,-2.25955 1.579165,-2.65264 0.228251,-0.13954 0.462923,-0.28847 0.697757,-0.43953 z m 8.816218,3.8e-4 c 0.234662,0.15096 0.469191,0.2998 0.697278,0.43923 0.643009,0.3931 1.218504,1.57009 1.579068,2.65264 0.02593,0.0779 0.04905,0.15238 0.07281,0.22786 -1.299966,-0.61826 -1.873512,-1.48433 -2.139233,-2.2295 -0.154223,-0.43249 -0.20057,-0.81864 -0.209952,-1.09023 z m -8.45077,5.99343 c 0.145999,0.25009 0.308276,0.58146 0.458464,1.01166 0.408237,1.1694 0.726041,3.05717 0.359254,5.93382 -0.306861,-0.15567 -0.595691,-0.3292 -0.860197,-0.51836 0.232743,-2.06926 0.191728,-4.20728 0.09974,-5.76128 a 0.24377935,0.24377935 0 0 0 -0.0021,-0.015 0.24377935,0.24377935 0 0 0 0,-0.0141 c 0,-0.003 -5.29e-4,-0.002 -0.0011,-0.006 h 5.29e-4 z m 8.083994,0.0137 -0.05384,0.61738 c 0,0.004 -5.29e-4,0.002 -0.0011,0.006 a 0.24377935,0.24377935 0 0 0 0,0.0122 0.24377935,0.24377935 0 0 0 -0.0011,0.0162 c -0.09232,1.55893 -0.134134,3.70568 0.101152,5.78107 -0.252917,0.24687 -0.533606,0.45764 -0.835813,0.63444 -0.389078,-2.93846 -0.07128,-4.86594 0.339638,-6.05702 0.147679,-0.42811 0.307054,-0.75939 0.45104,-1.01073 z"/></g><text x="0" y="41.458334" fill="#000000" font-size="5px" font-weight="bold" font-family="'Helvetica Neue', Helvetica, Arial-Unicode, Arial, Sans-serif">Created by Imam Darmawan</text><text x="0" y="46.458334" fill="#000000" font-size="5px" font-weight="bold" font-family="'Helvetica Neue', Helvetica, Arial-Unicode, Arial, Sans-serif">from the Noun Project</text></svg>