<?xml version="1.0" encoding="utf-8"?>
<!-- Generator: Adobe Illustrator 24.0.1, SVG Export Plug-In . SVG Version: 6.00 Build 0)  -->
<svg version="1.1" id="Layer_1" xmlns="http://www.w3.org/2000/svg" xmlns:xlink="http://www.w3.org/1999/xlink" x="0px" y="0px"
	 viewBox="0 0 24 24" style="enable-background:new 0 0 24 24;" xml:space="preserve">
<style type="text/css">
	.st0{fill:none;}
</style>
<path class="st0" d="M0,0h24v24H0V0z"/>
<path d="M12,2C6.5,2,2,6.5,2,12s4.5,10,10,10s10-4.5,10-10S17.5,2,12,2z M12,20c-4.4,0-8-3.6-8-8s3.6-8,8-8s8,3.6,8,8S16.4,20,12,20
	z"/>
<path d="M15.9,17L15.9,17c-0.5,0-0.9-0.3-1-0.8C14.5,14.9,13.4,14,12,14s-2.5,0.9-2.9,2.2C9,16.7,8.6,17,8.1,17h0
	c-0.7,0-1.1-0.6-1-1.2C7.7,13.6,9.7,12,12,12s4.3,1.6,4.8,3.8C17,16.4,16.5,17,15.9,17z"/>
</svg>
